<?xml version="1.0" encoding="UTF-8" standalone="no"?>
<!-- Created with Inkscape (http://www.inkscape.org/) -->

<svg
   width="129.99998mm"
   height="130mm"
   viewBox="0 0 129.99998 130"
   version="1.1"
   id="svg5"
   xml:space="preserve"
   xmlns:inkscape="http://www.inkscape.org/namespaces/inkscape"
   xmlns:sodipodi="http://sodipodi.sourceforge.net/DTD/sodipodi-0.dtd"
   xmlns="http://www.w3.org/2000/svg"
   xmlns:svg="http://www.w3.org/2000/svg"><sodipodi:namedview
     id="namedview7"
     pagecolor="#ffffff"
     bordercolor="#000000"
     borderopacity="0.25"
     inkscape:showpageshadow="2"
     inkscape:pageopacity="0.0"
     inkscape:pagecheckerboard="0"
     inkscape:deskcolor="#d1d1d1"
     inkscape:document-units="mm"
     showgrid="false" /><defs
     id="defs2" /><g
     inkscape:label="Capa 1"
     inkscape:groupmode="layer"
     id="layer1"
     transform="translate(-45.539727,-8.1553571)"><circle
       style="display:inline;fill:#3f78bb;fill-opacity:1;fill-rule:evenodd;stroke-width:0.27238"
       id="path2488"
       cx="110.53973"
       cy="73.155357"
       r="65"
       inkscape:label="CIRCLE" /><path
       style="fill:#ffffff;fill-rule:evenodd;stroke-width:0.184701"
       d="m 104.88125,80.600647 c 0.0457,-13.88486 0.0317,-14.620867 -0.283,-14.796961 -0.31342,-0.1754 -0.63796,-0.492164 -1.17067,-1.142616 -0.12912,-0.157663 -0.28131,-0.558422 -0.33819,-0.890572 -0.0569,-0.33215 -0.19072,-0.785053 -0.2974,-1.006453 -0.30531,-0.633619 0.18282,-1.993575 0.98046,-2.731577 1.01165,-0.936014 2.27826,-1.450954 3.2888,-1.337051 0.46042,0.0519 0.86756,0.185645 0.90475,0.297222 0.0372,0.111578 0.17304,0.20287 0.30189,0.20287 0.27291,0 1.39726,1.031057 1.39726,1.281324 0,0.09345 0.13061,0.300511 0.29025,0.460147 0.22281,0.222814 0.69483,0.290246 2.03171,0.290246 h 1.74147 v -1.957613 c 0,-1.933466 0.007,-1.963946 0.54969,-2.471094 0.96153,-0.898203 1.87993,-0.816732 2.66167,0.236116 0.2943,0.396375 0.39736,0.849723 0.44088,1.939367 0.0957,2.39553 -0.0225,2.253224 1.87108,2.253224 1.58374,0 1.64834,-0.0167 1.96573,-0.507932 0.46522,-0.720053 1.13573,-1.315725 1.97123,-1.751213 0.58467,-0.304747 0.93669,-0.356368 1.85956,-0.272685 0.62609,0.05677 1.16812,0.192524 1.2045,0.301667 0.0364,0.109146 0.16812,0.198446 0.29275,0.198446 0.31403,0 1.41173,1.102045 1.6056,1.611958 0.15055,0.395991 0.25919,0.419759 1.91882,0.419759 h 1.75924 v -1.953575 c 0,-1.912943 0.0112,-1.964801 0.5399,-2.493471 0.66432,-0.664329 1.49539,-0.711626 2.33961,-0.133154 0.68257,0.467707 0.80938,0.959131 0.81249,3.148761 l 0.002,1.431439 h 1.85281 c 1.59691,0 1.86896,-0.04464 1.96973,-0.323229 0.10624,-0.293685 0.99631,-1.21445 1.81521,-1.877798 0.1949,-0.157882 0.74376,-0.261662 1.38385,-0.261662 1.37602,0 2.53189,0.541925 3.34433,1.567968 0.58514,0.738989 0.62332,0.873358 0.61586,2.167615 -0.005,0.907238 -0.0843,1.405242 -0.23088,1.4541 -0.12261,0.04087 -0.22292,0.181472 -0.22292,0.312446 0,0.361149 -1.60353,1.762797 -2.01669,1.762797 -0.19945,0 -0.414,0.08312 -0.47678,0.184701 -0.17865,0.289052 -1.44775,0.216659 -2.14187,-0.122177 -0.34576,-0.168786 -0.93152,-0.542806 -1.30169,-0.831157 -0.64269,-0.500642 -0.76135,-0.524277 -2.632,-0.524277 h -1.95896 v 10.705848 c 0,10.407957 0.0107,10.732971 0.38422,11.680627 0.21132,0.536128 0.44063,1.017122 0.50958,1.068872 0.069,0.05175 0.3324,0.405209 0.58546,0.785463 0.25306,0.380251 0.50166,0.692036 0.55246,0.692854 0.0508,7.93e-4 0.31474,0.192762 0.58656,0.426545 0.91506,0.787011 2.64601,1.515356 4.00512,1.685264 0.91801,0.11476 1.63122,0.428934 2.1961,0.96739 0.27469,0.261845 0.31053,1.169972 0.0462,1.169972 -0.10158,0 -0.1847,0.121436 -0.1847,0.269856 0,0.148424 -0.1819,0.439328 -0.40423,0.646457 -0.32976,0.307221 -0.651,0.376597 -1.74376,0.376597 -0.73675,0 -1.38416,-0.0722 -1.43869,-0.160441 -0.0545,-0.08824 -0.43627,-0.214346 -0.8483,-0.280233 -1.4235,-0.227626 -3.12627,-1.203055 -4.55628,-2.610048 -0.74361,-0.73165 -1.35202,-1.413844 -1.35202,-1.515986 0,-0.102143 -0.16108,-0.390491 -0.35796,-0.640776 -0.19687,-0.250285 -0.41367,-0.677074 -0.48177,-0.948417 -0.0681,-0.271344 -0.19062,-0.493353 -0.27227,-0.493353 -0.0816,0 -0.20749,-0.35324 -0.27965,-0.784979 -0.0722,-0.431742 -0.22492,-0.844246 -0.33946,-0.916678 -0.14964,-0.09463 -0.22491,-3.226993 -0.26742,-11.128264 l -0.0591,-10.99657 h -1.91319 c -1.32655,0 -1.98803,0.07396 -2.15726,0.241213 -0.13424,0.132664 -0.38953,0.296288 -0.5673,0.363603 -0.17778,0.06732 -0.32323,0.204354 -0.32323,0.304525 0,0.100171 -0.2909,0.236704 -0.64645,0.303406 -0.35556,0.0667 -0.64646,0.195141 -0.64646,0.285419 0,0.226716 -1.61352,0.207814 -1.75466,-0.02056 -0.0628,-0.101584 -0.26954,-0.1847 -0.45947,-0.1847 -0.18991,0 -0.45514,-0.107006 -0.58937,-0.237789 -0.83951,-0.817907 -1.57067,-1.055122 -3.25217,-1.055122 -0.91937,0 -1.80305,0.05045 -1.96374,0.112112 -0.26158,0.100378 -0.29216,1.191355 -0.29216,10.424734 0,6.675845 0.0651,10.352879 0.18471,10.426774 0.10158,0.06278 0.18729,0.337815 0.19047,0.61118 0.01,0.834062 0.83097,2.240497 1.8926,3.241098 1.32306,1.246981 1.80279,1.596416 2.19172,1.596416 0.17652,0 0.36871,0.07729 0.42708,0.171741 0.0584,0.09446 0.72821,0.272095 1.48852,0.394746 0.7603,0.12265 1.38237,0.294714 1.38237,0.382359 0,0.08765 0.12845,0.159362 0.28544,0.159362 0.157,0 0.47739,0.191942 0.71199,0.42654 0.55323,0.55323 0.449,1.388978 -0.25767,2.066009 -0.47973,0.459608 -0.60553,0.48867 -1.78235,0.41174 -0.6964,-0.04552 -1.6402,-0.178025 -2.09734,-0.294442 -0.95067,-0.242104 -2.64809,-0.972196 -2.73974,-1.178409 -0.0339,-0.07619 -0.14997,-0.138528 -0.25803,-0.138528 -0.59161,0 -2.89047,-2.465935 -3.70202,-3.971081 -1.25328,-2.324407 -1.29173,-2.68782 -1.35828,-12.836755 -0.0323,-4.926912 -0.11002,-9.643726 -0.1727,-10.481807 L 113.5108,64.73655 h -1.9864 c -1.84849,0 -2.02345,0.03182 -2.51985,0.458367 l -0.53343,0.45837 -0.10585,13.255717 c -0.0775,9.704165 -0.16537,13.396113 -0.32799,13.779722 -0.40968,0.966388 -2.28112,2.523569 -3.03286,2.523569 -0.10412,0 -0.15236,-5.726096 -0.12308,-14.611651 z m 2.16768,-15.793371 c 0.31344,-0.06269 0.90564,-0.423939 1.316,-0.802783 0.63679,-0.587883 0.74612,-0.799023 0.74612,-1.441018 0,-1.527226 -1.1601,-2.62916 -2.76794,-2.62916 -0.50935,0 -0.92609,0.08311 -0.92609,0.184701 0,0.101586 -0.1118,0.1847 -0.24843,0.1847 -0.73826,0 -1.3515,1.755717 -1.03596,2.965992 0.3325,1.275363 1.40364,1.840101 2.9163,1.537568 z m 19.36818,-0.757579 c 0.59905,-0.660426 0.62996,-0.759833 0.56839,-1.827998 -0.0567,-0.9833 -0.14242,-1.206905 -0.6621,-1.726586 -1.89228,-1.892274 -5.05248,0.56806 -3.81167,2.967524 0.61561,1.190461 1.12091,1.48214 2.36983,1.367946 0.75738,-0.06925 1.00364,-0.194482 1.53555,-0.780886 z m 18.21693,0.136711 c 0.60211,-0.547905 0.6785,-0.71755 0.6785,-1.506784 0,-1.120153 -0.49427,-1.965399 -1.40965,-2.41065 -0.74866,-0.364154 -1.82524,-0.44458 -2.00733,-0.149958 -0.0628,0.101586 -0.25205,0.1847 -0.4206,0.1847 -0.16854,0 -0.4961,0.220718 -0.7279,0.490482 -0.61253,0.712848 -0.58733,2.134902 0.0546,3.079562 0.58984,0.868024 1.02061,1.059892 2.21625,0.987129 0.76062,-0.04629 1.06574,-0.173628 1.61614,-0.674481 z"
       id="path371"
       inkscape:label="ITT" /><path
       style="fill:#ffffff;fill-rule:evenodd;stroke-width:0.184701"
       d="m 87.413311,95.267398 c -0.505349,-0.0433 -1.004044,-0.145691 -1.10821,-0.227531 -0.104164,-0.08184 -0.493903,-0.203621 -0.866087,-0.270619 -0.899136,-0.161856 -2.929147,-1.233096 -3.778414,-1.993876 -1.292844,-1.158137 -2.471195,-2.519656 -2.471195,-2.855328 0,-0.136834 -0.06349,-0.24879 -0.141097,-0.24879 -0.151945,0 -0.716373,-1.1903 -1.269961,-2.678171 -0.322765,-0.867492 -0.343606,-1.696527 -0.343606,-13.667912 0,-11.967236 0.02122,-12.811982 0.347954,-13.852612 0.191375,-0.609513 0.45167,-1.232881 0.578434,-1.38526 0.126762,-0.152379 0.287467,-0.464064 0.357122,-0.692629 0.06965,-0.228568 0.204157,-0.415579 0.298899,-0.415579 0.09474,0 0.172255,-0.09456 0.172255,-0.210126 0,-0.718439 3.141866,-3.656148 4.479012,-4.187968 0.380947,-0.151514 0.692629,-0.33868 0.692629,-0.415928 0,-0.07725 0.353242,-0.19871 0.784981,-0.269917 0.43174,-0.07121 0.890225,-0.214485 1.018855,-0.318392 0.34888,-0.281821 5.816478,-0.273111 5.910654,0.0094 0.04057,0.121701 0.245536,0.221271 0.455488,0.221271 0.405244,0 2.40791,0.920351 2.511925,1.154385 0.03386,0.07619 0.175184,0.138526 0.31405,0.138526 0.138864,0 0.31895,0.105891 0.400188,0.235312 0.08123,0.129421 0.36077,0.370528 0.621186,0.535792 0.66585,0.422561 2.365608,2.187623 2.492896,2.588673 0.05835,0.18384 0.164703,0.334253 0.236342,0.334253 0.30838,0 1.428689,2.606815 1.587549,3.694031 0.0668,0.457136 0.2105,1.232228 0.31935,1.722426 0.16678,0.751118 0.14553,1.007412 -0.13515,1.62985 -0.33765,0.748778 -1.339666,1.449961 -2.072043,1.449961 -0.491914,0 -1.121548,-0.740897 -1.263261,-1.48649 -0.06665,-0.350668 -0.183206,-0.720693 -0.259012,-0.822277 -0.07581,-0.101587 -0.199061,-0.555527 -0.273899,-1.008756 -0.07484,-0.453231 -0.202954,-0.951923 -0.284702,-1.10821 -0.08175,-0.156284 -0.337561,-0.699733 -0.568473,-1.207661 -0.452954,-0.996344 -2.749593,-3.41425 -3.246684,-3.418115 -0.08048,-5.29e-4 -0.395668,-0.132297 -0.700426,-0.292603 -0.714859,-0.376023 -3.195196,-0.775062 -3.789339,-0.609632 -0.252338,0.07026 -0.691925,0.136028 -0.976857,0.146156 -0.48677,0.0173 -1.960203,0.595847 -2.41585,0.94859 -0.982435,0.76056 -1.907672,1.684618 -2.304005,2.301068 -0.785391,1.221578 -1.134284,1.92048 -1.134284,2.272186 0,0.183224 -0.09013,0.423264 -0.200292,0.533423 -0.288394,0.288396 -0.341569,23.356565 -0.05467,23.717197 0.113737,0.142968 0.262954,0.571622 0.331597,0.952569 0.06864,0.380947 0.204153,0.692629 0.301136,0.692629 0.09698,0 0.176332,0.07943 0.176332,0.176501 0,0.634643 1.91689,2.670357 3.051333,3.240479 0.404276,0.203171 0.778677,0.427156 0.832004,0.497745 0.134368,0.17786 2.532615,0.591767 3.32002,0.572989 2.513767,-0.05995 4.991828,-1.404419 6.344394,-3.442144 0.358018,-0.539375 0.709205,-1.223849 0.78042,-1.521055 0.07121,-0.297204 0.193127,-0.623488 0.270912,-0.725073 0.07779,-0.101586 0.202055,-0.674417 0.276146,-1.27296 0.07409,-0.598541 0.247819,-1.305026 0.386064,-1.569961 0.138245,-0.264938 0.251867,-0.5515 0.252495,-0.636802 0.0016,-0.211325 0.78097,-0.84701 1.047858,-0.854617 0.11856,-0.0034 0.59177,0.155115 1.051578,0.352213 1.035278,0.44377 1.482908,1.201476 1.356918,2.296859 -0.20392,1.772883 -0.86937,4.049106 -1.437637,4.917543 -0.09971,0.152379 -0.230129,0.422505 -0.289819,0.600281 -0.05969,0.177774 -0.176353,0.323228 -0.259244,0.323228 -0.08289,0 -0.197186,0.145452 -0.253984,0.323226 -0.209701,0.656347 -3.087071,3.370802 -3.573108,3.370802 -0.108056,0 -0.224168,0.06234 -0.25803,0.138528 -0.09385,0.211175 -1.641877,0.902481 -2.370399,1.058556 -0.355515,0.07616 -0.729506,0.202803 -0.831093,0.281416 -0.234741,0.181655 -3.217934,0.342609 -4.428146,0.238913 z"
       id="path373"
       inkscape:label="C" /><path
       style="fill:#ffffff;fill-rule:evenodd;stroke-width:0.184701"
       d="m 68.242097,107.40298 c -0.258027,-0.20297 -0.954939,-1.09646 -1.548696,-1.98554 -0.593756,-0.88909 -1.127294,-1.65808 -1.18564,-1.70887 -0.463645,-0.40362 -4.049699,-7.219803 -4.049699,-7.697455 0,-0.11766 -0.06378,-0.241634 -0.14174,-0.275495 -0.07796,-0.03386 -0.384527,-0.684935 -0.681265,-1.446829 -0.296738,-0.761894 -0.597379,-1.468376 -0.668089,-1.569963 -0.07071,-0.101584 -0.190288,-0.472877 -0.265729,-0.825095 -0.07544,-0.352214 -0.203282,-0.767792 -0.284091,-0.923507 -0.385993,-0.743773 -1.231212,-3.982469 -1.495862,-5.731807 -0.09989,-0.66031 -0.254441,-1.366792 -0.343437,-1.569963 -0.08899,-0.203171 -0.247816,-1.034328 -0.352935,-1.847017 -0.105119,-0.812686 -0.236805,-1.685401 -0.292635,-1.939364 -0.224896,-1.023006 -0.305895,-8.12769 -0.114763,-10.066231 0.329618,-3.34313 0.576514,-5.154896 0.743524,-5.456124 0.08675,-0.156464 0.218927,-0.821391 0.293728,-1.47761 0.0748,-0.656223 0.188878,-1.276247 0.253507,-1.377834 0.06463,-0.101584 0.216385,-0.641837 0.337228,-1.20056 0.320111,-1.480018 0.869884,-3.402547 1.003541,-3.509328 0.06358,-0.05079 0.177191,-0.383254 0.252478,-0.738806 0.07529,-0.35555 0.193392,-0.72957 0.262459,-0.831157 0.06907,-0.101584 0.319373,-0.683395 0.556239,-1.29291 0.679468,-1.748438 3.389074,-7.19246 3.723161,-7.480409 0.05893,-0.05079 0.224673,-0.362479 0.368316,-0.692631 0.143642,-0.330155 0.323993,-0.600281 0.40078,-0.600281 0.07679,0 0.139615,-0.07724 0.139615,-0.171641 0,-0.0944 0.348795,-0.696989 0.7751,-1.339085 0.766503,-1.154502 0.944983,-1.3975 1.395142,-1.899468 0.126982,-0.141597 0.230876,-0.342373 0.230876,-0.446167 0,-0.103793 0.108913,-0.255182 0.242025,-0.33642 0.133114,-0.08124 0.363691,-0.326409 0.512392,-0.544825 1.164963,-1.711129 7.982765,-8.536619 9.173286,-9.183632 0.177777,-0.09662 0.389697,-0.286932 0.470935,-0.422923 0.08124,-0.13599 0.264118,-0.247256 0.4064,-0.247256 0.142282,0 0.325162,-0.104137 0.4064,-0.231412 0.198178,-0.310494 2.177709,-1.691778 3.149102,-2.197394 0.228569,-0.11897 0.415579,-0.286083 0.415579,-0.371364 0,-0.08528 0.0815,-0.155053 0.181115,-0.155053 0.09961,0 0.619088,-0.270127 1.154385,-0.600282 0.535297,-0.330152 1.388848,-0.808066 1.896777,-1.062032 0.507928,-0.253966 0.951214,-0.524092 0.985075,-0.600281 0.03386,-0.07619 0.16623,-0.138526 0.294151,-0.138526 0.127923,0 0.806701,-0.283897 1.508397,-0.630885 1.632392,-0.807218 2.389701,-1.129824 3.307527,-1.408973 0.406342,-0.123584 0.821921,-0.289546 0.923507,-0.368802 0.101584,-0.07926 0.496385,-0.202348 0.877332,-0.273537 0.380947,-0.07119 0.692629,-0.192678 0.692629,-0.269976 0,-0.07729 0.336092,-0.194283 0.746874,-0.259969 0.410781,-0.06568 0.888696,-0.193688 1.062032,-0.284451 0.367996,-0.192685 3.264789,-0.857308 4.47095,-1.025784 0.45713,-0.06385 0.99738,-0.192191 1.20056,-0.285194 0.79297,-0.362987 4.11426,-0.600054 9.39439,-0.670552 3.1346,-0.04185 5.60635,-0.0016 5.72574,0.09336 0.11555,0.09185 0.99162,0.226174 1.94683,0.29849 0.9552,0.07232 1.86947,0.205213 2.03171,0.29533 0.16224,0.09012 0.79368,0.246134 1.40319,0.34671 1.92422,0.317508 3.85786,0.768898 4.46075,1.041318 0.32011,0.144643 0.75156,0.262988 0.95878,0.262988 0.20722,0 0.42231,0.07369 0.47798,0.163762 0.0557,0.09007 0.38952,0.217852 0.7419,0.283958 0.35239,0.06611 0.87278,0.241311 1.15643,0.389343 0.28365,0.148031 0.78585,0.320405 1.11601,0.383053 0.33015,0.06265 0.60028,0.184004 0.60028,0.269682 0,0.08568 0.2909,0.210351 0.64645,0.277053 0.35555,0.0667 0.64646,0.195141 0.64646,0.285422 0,0.09028 0.10389,0.166743 0.23088,0.16992 0.12698,0.0032 0.64645,0.210207 1.15438,0.460066 0.50793,0.249859 1.0274,0.455049 1.15439,0.455977 0.12698,7.94e-4 0.2326,0.06402 0.2347,0.140214 0.002,0.07619 0.45752,0.346315 1.01203,0.600281 0.5545,0.253966 1.00991,0.517644 1.01202,0.585957 0.002,0.06831 0.29474,0.220207 0.65029,0.33755 0.35555,0.117343 0.64646,0.29002 0.64646,0.383728 0,0.09371 0.11195,0.170376 0.24879,0.170376 0.13683,0 0.44046,0.166232 0.67471,0.369403 0.23426,0.203173 0.52899,0.369403 0.65496,0.369403 0.12597,0 0.27687,0.124675 0.33535,0.277053 0.0585,0.152379 0.1954,0.277051 0.30429,0.277051 0.22302,0 1.35037,0.756444 1.44514,0.969685 0.0339,0.07619 0.15157,0.138525 0.26156,0.138525 0.11,0 0.33164,0.126584 0.49254,0.2813 0.1609,0.154712 0.62501,0.535077 1.03135,0.845251 2.41691,1.844897 5.32215,4.589708 7.59198,7.172745 0.39577,0.45039 0.89513,1.01118 1.10968,1.246204 0.21455,0.235026 0.62989,0.780801 0.92297,1.212831 0.29308,0.432033 0.63702,0.85198 0.76429,0.933217 0.12728,0.08123 0.23142,0.268245 0.23142,0.415579 0,0.14733 0.073,0.267872 0.16229,0.267872 0.0893,0 0.2631,0.243377 0.38632,0.540832 0.12321,0.297458 0.34108,0.585756 0.48416,0.640659 0.14308,0.05491 0.26014,0.227108 0.26014,0.382678 0,0.155564 0.0623,0.282932 0.13852,0.283035 0.0762,1.03e-4 0.36923,0.394904 0.65121,0.877332 0.28197,0.482431 0.58782,1.001818 0.67967,1.154197 0.93768,1.555671 1.47734,2.578693 1.58328,3.001399 0.07,0.27936 0.19479,0.507929 0.27729,0.507929 0.0825,0 0.20477,0.249346 0.27171,0.554103 0.0669,0.304758 0.19821,0.554107 0.29172,0.554107 0.0935,0 0.17003,0.09133 0.17003,0.202961 0,0.111631 0.11654,0.464871 0.25898,0.784982 0.14244,0.320109 0.47814,1.080712 0.746,1.690227 0.26786,0.609516 0.5669,1.252532 0.66453,1.42893 0.0976,0.176398 0.1775,0.436438 0.1775,0.577871 0,0.256728 0.38994,0.451787 1.72112,0.860973 1.49837,0.460571 3.26583,3.00247 3.26583,4.696793 0,0.555771 -0.62114,2.341991 -0.96627,2.778718 -0.0803,0.101584 -0.32164,0.418761 -0.53636,0.704837 -0.21472,0.286075 -0.73329,0.742886 -1.15238,1.01514 -0.68394,0.444309 -0.93358,0.495075 -2.43775,0.49572 -1.31584,5.3e-4 -1.82902,-0.07863 -2.3892,-0.368683 -0.88934,-0.460492 -2.04198,-1.577057 -2.22153,-2.15201 -0.0745,-0.238596 -0.22817,-0.493109 -0.34147,-0.565586 -0.12726,-0.08141 -0.20598,-0.787292 -0.20598,-1.847014 0,-1.40956 0.0658,-1.812838 0.36941,-2.262884 0.54073,-0.801645 1.6643,-1.945828 1.91076,-1.945828 0.29244,0 0.2688,-0.76069 -0.0375,-1.205637 -0.13792,-0.200379 -0.35317,-0.679093 -0.47834,-1.063808 -0.12516,-0.384717 -0.4684,-1.174316 -0.76274,-1.754663 -0.29435,-0.580351 -0.53624,-1.15215 -0.53752,-1.270667 -10e-4,-0.118517 -0.0647,-0.243189 -0.14087,-0.277053 -0.0762,-0.03386 -0.38787,-0.560261 -0.69263,-1.169776 -0.30476,-0.609515 -0.59735,-1.149765 -0.65021,-1.20056 -0.0529,-0.05079 -0.1992,-0.300138 -0.32519,-0.554104 -0.126,-0.253965 -0.37365,-0.682979 -0.55035,-0.95336 -0.1767,-0.270385 -0.56518,-0.893751 -0.86329,-1.385263 -0.29812,-0.491511 -0.63058,-0.991613 -0.73881,-1.11134 -0.10823,-0.119726 -0.52299,-0.680759 -0.9217,-1.246735 -0.39871,-0.565978 -0.79351,-1.029049 -0.87734,-1.029049 -0.0838,0 -0.1524,-0.120541 -0.1524,-0.267875 0,-0.14733 -0.10439,-0.33434 -0.23197,-0.415578 -0.12758,-0.08123 -0.47876,-0.480166 -0.78039,-0.886508 -0.63796,-0.859425 -5.2092,-5.450387 -6.28746,-6.314588 -0.40408,-0.323863 -0.98404,-0.779481 -1.2888,-1.012483 -0.30476,-0.233 -0.58181,-0.487495 -0.61567,-0.565542 -0.0339,-0.07805 -0.17519,-0.141901 -0.31405,-0.141901 -0.13887,0 -0.31895,-0.103897 -0.40019,-0.230878 -0.17661,-0.276053 -1.12589,-0.946254 -1.57914,-1.114886 -0.17777,-0.06614 -0.32323,-0.205981 -0.32323,-0.310753 0,-0.104775 -0.11873,-0.1905 -0.26386,-0.1905 -0.14512,0 -0.37369,-0.109257 -0.50793,-0.242792 -0.32623,-0.324533 -2.84552,-1.788925 -3.0776,-1.788925 -0.10079,0 -0.21096,-0.0631 -0.24482,-0.140229 -0.0828,-0.188516 -3.14026,-1.710248 -3.43237,-1.708314 -0.12698,7.94e-4 -0.23088,-0.08159 -0.23088,-0.183171 0,-0.101587 -0.0877,-0.184703 -0.19483,-0.184703 -0.17628,0 -0.84066,-0.272288 -2.51125,-1.029208 -0.32012,-0.145037 -0.69414,-0.264213 -0.83116,-0.26484 -0.13703,-5.29e-4 -0.4887,-0.126077 -0.78151,-0.278778 -0.2928,-0.152702 -0.85567,-0.329338 -1.25082,-0.392525 -0.39516,-0.06319 -0.76309,-0.187085 -0.81762,-0.275328 -0.0545,-0.08824 -0.25758,-0.160441 -0.45121,-0.160441 -0.19363,0 -0.74791,-0.134398 -1.23174,-0.298662 -1.17907,-0.400304 -3.398,-0.797565 -5.90669,-1.057492 -1.13498,-0.117594 -2.12544,-0.276145 -2.20103,-0.352335 -0.19926,-0.200834 -8.51706,-0.17055 -8.89787,0.0324 -0.1764,0.09401 -1.235,0.255029 -2.35244,0.357822 -2.44703,0.225105 -5.433728,0.699037 -5.8252,0.924351 -0.156287,0.08995 -0.654981,0.22478 -1.10821,0.299617 -0.453228,0.07484 -0.907169,0.198951 -1.008756,0.275804 -0.101584,0.07686 -0.492873,0.195239 -0.869529,0.263076 -0.376655,0.06784 -0.916908,0.244393 -1.20056,0.392348 -0.283652,0.147955 -0.640403,0.270033 -0.792782,0.271285 -0.152378,0.0013 -0.500022,0.118605 -0.772541,0.260781 -0.272518,0.142179 -0.750432,0.314502 -1.062032,0.382942 -0.311602,0.06844 -0.566547,0.197178 -0.566547,0.286091 0,0.08891 -0.290904,0.216231 -0.646456,0.282933 -0.35555,0.0667 -0.646454,0.181983 -0.646454,0.256185 0,0.0742 -0.345665,0.238474 -0.768146,0.365051 -0.422482,0.126579 -1.085755,0.430641 -1.473941,0.675693 -0.388189,0.245052 -0.784627,0.445548 -0.880975,0.445548 -0.09635,0 -0.287975,0.103894 -0.425842,0.230878 -0.326157,0.300415 -1.212061,0.81466 -1.853615,1.075981 -0.27936,0.113789 -0.507929,0.281874 -0.507929,0.373523 0,0.09165 -0.07943,0.166631 -0.176498,0.166631 -0.09708,0 -0.658106,0.33327 -1.246735,0.740598 -0.588632,0.407326 -1.227082,0.843682 -1.418781,0.969682 -0.9985,0.656286 -3.65857,2.790942 -4.566681,3.66467 -2.642984,2.542921 -3.087196,2.988082 -3.982146,3.990634 -0.525365,0.588528 -1.147435,1.3194 -1.382379,1.624155 -0.706004,0.915789 -0.778854,1.003834 -1.40262,1.695151 -0.330152,0.365911 -0.600279,0.724064 -0.600279,0.795896 0,0.114707 -0.217966,0.408784 -0.920083,1.241364 -0.103471,0.122695 -0.188127,0.26398 -0.188127,0.313968 0,0.04999 -0.240654,0.448296 -0.534789,0.885129 -1.07274,1.593167 -3.343941,5.947698 -3.343941,6.411264 0,0.110591 -0.08312,0.201073 -0.184701,0.201073 -0.101586,0 -0.184703,0.09133 -0.184703,0.202962 0,0.11163 -0.117861,0.464873 -0.261913,0.784981 -0.642112,1.426896 -1.031476,2.399507 -1.037265,2.591038 -0.0034,0.11407 -0.166857,0.539862 -0.363135,0.946206 -0.196279,0.406342 -0.359688,0.885386 -0.363136,1.064538 -0.0034,0.179154 -0.08873,0.470058 -0.189521,0.646456 -0.191108,0.334471 -0.609123,1.934779 -1.000447,3.83005 -0.125849,0.609516 -0.278929,1.232882 -0.34018,1.385261 -0.145511,0.362008 -0.486617,2.79899 -0.685094,4.89459 -0.203023,2.14357 -0.202351,7.286964 0.0013,9.419775 0.302093,3.164883 0.554326,4.988351 0.734184,5.307661 0.09936,0.176398 0.18039,0.50886 0.180068,0.738807 -2.65e-4,0.229946 0.174836,1.041452 0.389241,1.803347 0.214406,0.761891 0.554363,1.967068 0.75546,2.67817 0.201099,0.7111 0.483076,1.554819 0.626618,1.87493 0.143531,0.320109 0.260974,0.710002 0.260974,0.866429 0,0.156429 0.07672,0.33183 0.170493,0.389784 0.09377,0.05795 0.229523,0.374541 0.301677,0.703532 0.07215,0.328989 0.286335,0.887836 0.475962,1.24188 0.18963,0.354047 0.344779,0.748848 0.344779,0.877332 0,0.128487 0.08312,0.233614 0.184703,0.233614 0.101584,0 0.1847,0.117001 0.1847,0.260006 0,0.279583 0.92288,2.17174 1.135293,2.327664 0.07058,0.05181 0.185488,0.321937 0.255346,0.600281 0.06986,0.278342 0.201123,0.506077 0.291698,0.506077 0.09057,0 0.164677,0.08437 0.164677,0.187499 0,0.103127 0.253084,0.622599 0.562409,1.154381 0.937977,1.61255 1.050263,1.78465 1.715484,2.6292 0.779116,0.98915 1.923087,2.76042 2.048425,3.17168 0.09078,0.29788 -0.02082,0.54754 -0.43349,0.96969 -0.646108,0.66095 -1.24491,0.72347 -1.91103,0.1995 z"
       id="path375"
       inkscape:label="t" /><path
       style="fill:#ffffff;fill-rule:evenodd;stroke-width:0.184701"
       d="m 107.26403,128.25502 c -2.65383,-0.18596 -5.04807,-0.48791 -6.3722,-0.80363 -0.60951,-0.14533 -1.523787,-0.32111 -2.031716,-0.39064 -0.507931,-0.0695 -1.006623,-0.18756 -1.10821,-0.26233 -0.101586,-0.0748 -0.434049,-0.19046 -0.738806,-0.2571 -0.630656,-0.13791 -4.61155,-1.36937 -5.171641,-1.59981 -0.203171,-0.0836 -0.660308,-0.27709 -1.015857,-0.43 -0.355553,-0.15291 -1.145151,-0.48386 -1.754667,-0.73546 -1.556755,-0.6426 -5.659749,-2.75721 -6.661139,-3.43304 -0.460785,-0.31098 -0.878546,-0.56541 -0.928359,-0.56541 -0.108117,0 -1.167228,-0.73978 -1.503157,-1.04994 -0.469286,-0.43328 -0.95333,-0.43906 -1.836303,-0.0219 -1.323988,0.62549 -2.996914,0.58869 -4.351084,-0.0957 -1.150641,-0.58153 -2.281338,-1.69118 -2.463723,-2.41786 -0.06598,-0.2629 -0.19408,-0.47801 -0.284652,-0.47801 -0.09057,0 -0.164679,-0.74804 -0.164679,-1.66231 0,-0.91428 0.07411,-1.66232 0.164679,-1.66232 0.09057,0 0.215085,-0.20084 0.276696,-0.44631 0.119764,-0.47717 1.346581,-2.13951 1.65282,-2.13951 0.101085,0 0.303845,0.12237 0.337709,0.0462 0.09512,-0.21403 2.049987,-0.96969 2.508552,-0.96969 0.8749,0 2.844392,0.80869 3.60934,1.48203 1.193144,1.05024 1.655278,2.13132 1.601689,3.74684 -0.02423,0.73042 -0.03254,1.43017 -0.01847,1.55499 0.02813,0.24965 2.434267,1.89711 2.770759,1.89711 0.115522,0 0.210036,0.0634 0.210036,0.14091 0,0.13988 0.177284,0.25353 1.214864,0.77884 0.296891,0.15031 0.581358,0.32126 0.632153,0.37989 0.05079,0.0586 0.362476,0.21586 0.692629,0.34939 0.330155,0.13355 0.600281,0.30923 0.600281,0.39042 0,0.0812 0.249346,0.20239 0.554104,0.26932 0.304757,0.0669 0.554103,0.19822 0.554103,0.29173 0,0.0935 0.103897,0.17262 0.230878,0.1758 0.126982,0.003 0.646457,0.21021 1.154385,0.46007 0.507929,0.24986 1.027401,0.45505 1.154383,0.45598 0.126984,7.9e-4 0.230878,0.0848 0.230878,0.18638 0,0.10159 0.129233,0.18471 0.287184,0.18471 0.260495,0 1.608918,0.5288 2.298636,0.90145 0.152379,0.0823 0.73419,0.25652 1.292911,0.38711 0.558723,0.13058 1.098973,0.30188 1.20056,0.38065 0.101587,0.0788 0.579501,0.202 1.062035,0.27384 0.482531,0.0718 0.877331,0.19767 0.877331,0.27963 0,0.082 0.541407,0.20701 1.203127,0.27788 0.66172,0.0709 1.244411,0.19563 1.294851,0.27726 0.0505,0.0816 0.65189,0.20204 1.33652,0.26759 0.68464,0.0656 1.86816,0.2556 2.63006,0.42234 2.00478,0.43874 10.89602,0.43526 13.02145,-0.005 0.81269,-0.16837 1.97631,-0.36168 2.58582,-0.42957 0.60952,-0.0679 1.19133,-0.18605 1.29291,-0.26256 0.10159,-0.0765 0.6834,-0.19895 1.29291,-0.27206 0.60952,-0.0731 1.19133,-0.19845 1.29291,-0.27852 0.10159,-0.0801 0.55873,-0.23431 1.01586,-0.34278 1.50523,-0.35714 2.85375,-0.76708 3.44489,-1.04723 0.32011,-0.15171 0.71491,-0.27583 0.87734,-0.27583 0.16242,0 0.29531,-0.0831 0.29531,-0.1847 0,-0.10159 0.13289,-0.1847 0.29531,-0.1847 0.29479,0 0.52989,-0.0935 2.50995,-0.99779 0.57783,-0.2639 1.13886,-0.47982 1.24673,-0.47982 0.10788,0 0.19614,-0.0765 0.19614,-0.17003 0,-0.0935 0.24935,-0.22479 0.55411,-0.29173 0.30476,-0.0669 0.5541,-0.19008 0.5541,-0.27366 0,-0.0836 0.25415,-0.24055 0.56477,-0.34883 0.31061,-0.10828 0.93815,-0.44888 1.39451,-0.75688 0.45637,-0.30799 0.90871,-0.55999 1.00521,-0.55999 0.0965,0 0.17544,-0.0649 0.17544,-0.14421 0,-0.0793 0.22857,-0.2416 0.50793,-0.36064 0.56618,-0.24126 2.37747,-1.51761 3.9249,-2.76574 0.55873,-0.45066 1.34832,-1.08353 1.75467,-1.40639 1.62004,-1.2872 6.18236,-6.06535 7.61758,-7.97796 0.83734,-1.11586 1.58596,-2.11195 1.6636,-2.21353 0.0776,-0.10159 0.51421,-0.76651 0.97017,-1.47761 0.45597,-0.71111 0.89175,-1.32062 0.96841,-1.35448 0.0767,-0.0339 0.13938,-0.14455 0.13938,-0.245975 0,-0.101426 0.29009,-0.679371 0.64465,-1.284328 0.35455,-0.604953 0.69602,-1.304644 0.75882,-1.554863 0.0628,-0.250219 0.18829,-0.454946 0.27887,-0.454946 0.0906,0 0.16468,-0.09479 0.16468,-0.210648 0,-0.194863 0.46203,-1.273442 1.01746,-2.375172 0.12804,-0.253966 0.29055,-0.73188 0.36114,-1.062035 0.0706,-0.330155 0.19756,-0.600279 0.28215,-0.600279 0.0846,0 0.20996,-0.332465 0.27861,-0.738807 0.0687,-0.406344 0.1912,-0.738806 0.27231,-0.738806 0.0811,0 0.2033,-0.372084 0.27149,-0.826852 0.0682,-0.454769 0.19044,-0.867913 0.27164,-0.918099 0.0812,-0.05019 0.24863,-0.613156 0.37204,-1.251043 0.12342,-0.637884 0.29133,-1.28778 0.37312,-1.444212 0.0818,-0.156432 0.20514,-0.738243 0.27409,-1.29291 0.069,-0.55467 0.1997,-1.174718 0.29055,-1.377892 0.0908,-0.203171 0.25493,-0.992769 0.36463,-1.754664 0.10969,-0.761894 0.28403,-1.925513 0.38741,-2.58582 0.10338,-0.660308 0.20903,-2.35322 0.23479,-3.762026 0.0533,-2.919119 0.12934,-3.071929 1.52758,-3.071929 1.3142,0 1.4019,0.207934 1.31616,3.120438 -0.0815,2.769798 -0.61407,8.027585 -0.87185,8.608107 -0.0902,0.203171 -0.21822,0.776418 -0.28444,1.273882 -0.0662,0.497461 -0.19324,1.037714 -0.28226,1.200557 -0.089,0.162846 -0.24221,0.670102 -0.34043,1.127239 -0.29156,1.356982 -0.7551,3.02723 -0.92437,3.330689 -0.0868,0.155715 -0.21787,0.556112 -0.29116,0.889775 -0.0733,0.333661 -0.24957,0.829627 -0.39175,1.102146 -0.14218,0.272518 -0.25902,0.636034 -0.25964,0.807815 -5.3e-4,0.171778 -0.0843,0.363723 -0.18594,0.42654 -0.10165,0.06282 -0.27774,0.483301 -0.39133,0.93441 -0.11359,0.451104 -0.27318,0.820193 -0.35463,0.820193 -0.0815,0 -0.2067,0.270126 -0.27833,0.600279 -0.0716,0.330155 -0.19242,0.641839 -0.26844,0.692631 -0.076,0.05079 -0.41882,0.663945 -0.76178,1.362562 -0.90302,1.839473 -0.97357,1.962063 -1.12912,1.962063 -0.0775,0 -0.1409,0.10501 -0.1409,0.23334 0,0.12834 -0.2909,0.66532 -0.64645,1.19328 -0.35555,0.52796 -0.64646,1.00975 -0.64646,1.07065 0,0.13156 -1.16222,1.71745 -1.56519,2.13576 -0.155,0.1609 -0.28183,0.38534 -0.28183,0.49875 0,0.11342 -0.10413,0.27268 -0.23141,0.35391 -0.12728,0.0812 -0.47121,0.50119 -0.76429,0.93322 -0.29309,0.43203 -0.70842,0.97613 -0.92297,1.20911 -0.21455,0.23298 -0.74666,0.85084 -1.18246,1.37301 -1.47019,1.76157 -4.96587,5.0963 -7.11873,6.79095 -0.38716,0.30476 -0.93855,0.74111 -1.22531,0.96968 -0.28677,0.22857 -0.61329,0.41558 -0.72561,0.41558 -0.11232,0 -0.20421,0.0641 -0.20421,0.14238 0,0.0783 -0.37402,0.3467 -0.83116,0.59643 -0.45714,0.24972 -0.83116,0.5082 -0.83116,0.5744 0,0.0662 -0.45713,0.35165 -1.01586,0.63434 -0.55872,0.28268 -1.01585,0.5738 -1.01585,0.64693 0,0.0731 -0.14546,0.1862 -0.32323,0.25128 -0.17778,0.0651 -0.65569,0.31796 -1.06203,0.56197 -1.3262,0.79637 -4.77228,2.42983 -5.49487,2.60461 -0.27937,0.0676 -0.50794,0.19696 -0.50794,0.28753 0,0.0906 -0.13288,0.16468 -0.29531,0.16468 -0.16242,0 -0.55722,0.11751 -0.87733,0.26114 -0.99677,0.44723 -5.09422,1.77058 -5.4822,1.77058 -0.20285,0 -0.51315,0.0763 -0.68954,0.16966 -0.1764,0.0933 -1.06877,0.31363 -1.98304,0.4896 -5.32903,1.02569 -10.05317,1.33456 -15.05317,0.9842 z"
       id="path377"
       inkscape:label="b"
       sodipodi:nodetypes="sssssssssssssssssssssssssssssssssscssssssssssssssssssssssssssssssssssssssssssssssssssssssssssssssssscsssssssssssssssssssssssssssssssssss" /></g></svg>
